# xmcd CD database file
#
# Track frame offsets:
#	150
#	27425
#	51730
#	71598
#	88273
#	110832
#	126386
#	165284
#	178648
#	205279
#
# Disc length: 2979 seconds
#
# Revision: 0
# Processed by: cddbd v1.5.2PL0 Copyright (c) Steve Scherf et al.
# Submitted via: CDex 1.70beta2
#
DISCID=970ba10a
DTITLE=Laurent Coq/Walter Smith III - The Lafayette Suite
DYEAR=2014
DGENRE=Jazz
TTITLE0=Comte de Broglie
TTITLE1=Baron Johan de Kalb
TTITLE2=Pasajes de San Juan
TTITLE3=Charleston, South Carolina, June 13, 1777
TTITLE4=Major Benjamin Huger
TTITLE5=General George Washington
TTITLE6=The Battle of Brandywine
TTITLE7=Valley Forge
TTITLE8=Comte de Rochambeau
TTITLE9=Yorktown
EXTD=YEAR: 2014
EXTT0=
EXTT1=
EXTT2=
EXTT3=
EXTT4=
EXTT5=
EXTT6=
EXTT7=
EXTT8=
EXTT9=
PLAYORDER=
